<svg xmlns="http://www.w3.org/2000/svg" viewBox="0 0 95.45 55.97"><defs><style>.cls-1{font-size:7.92px;font-family:AkzidenzGroteskBE-MdCn,Berthold Akzidenz Grotesk BE}.cls-1,.cls-8{fill:#85c59c}.cls-2{letter-spacing:-.02em}.cls-3,.cls-4{letter-spacing:.02em}.cls-5{letter-spacing:.04em}.cls-6{letter-spacing:0}.cls-7{fill:none;stroke:#1d1d1b;stroke-linecap:round;stroke-linejoin:round}.cls-12,.cls-9{font-size:20.31px;fill:#1d1d1b;font-family:AkzidenzGroteskBE-Cn,Berthold Akzidenz Grotesk BE}.cls-10{letter-spacing:.04em}.cls-11,.cls-12{letter-spacing:.02em}.cls-13{letter-spacing:0}</style></defs><title>Risorsa 8wasphub</title><g id="Livello_2" data-name="Livello 2"><g id="Livello_1-2" data-name="Livello 1"><text class="cls-1" transform="matrix(.9 -.2 .01 1 53.29 53.99)"><tspan class="cls-2">F</tspan><tspan class="cls-3" x="2.15" y="0">A</tspan><tspan x="4.96" y="0">B </tspan><tspan class="cls-3" x="9.41" y="0">LA</tspan><tspan x="14.69" y="0">B – W</tspan><tspan class="cls-4" x="27.39" y="0">A</tspan><tspan class="cls-5" x="30.16" y="0">S</tspan><tspan x="33.13" y="0">P </tspan><tspan class="cls-5" x="37.41" y="0">HU</tspan><tspan class="cls-6" x="43.85" y="0">B</tspan></text><path class="cls-7" d="M.5 7.67v30.14l20.92 13.47V21.25L.5 7.67zM28.97.5v30.14l20.92 13.47V14.08L28.97.5z"/><path class="cls-7" d="M21.42 21.25l28.47-6.84v30.03l-28.47 6.84V21.25z"/><path class="cls-7" d="M.5 7.34L28.97.5v30.03L.5 37.38V7.34zM49.89 14.41l-28.47 6.84"/><path class="cls-8" d="M21.85 30.9l.08-9.25 6.52-1.55.07 10.09-6.67 1.7v-.99z"/><text class="cls-9" transform="matrix(.9 -.2 .01 1 52.63 27.11)"><tspan class="cls-10">SU</tspan><tspan class="cls-11" x="18.63" y="0">P</tspan><tspan class="cls-10" x="27.52" y="0">E</tspan><tspan x="36.42" y="0">R</tspan></text><text class="cls-12" transform="matrix(.9 -.2 .01 1 52.63 44.59)">F<tspan class="cls-10" x="8.04" y="0">OR</tspan><tspan x="27.5" y="0">M</tspan><tspan class="cls-13" x="39.34" y="0">A</tspan></text></g></g></svg>